<svg width="464.8" height="71.82" viewBox="0 0 464.8 71.82" xmlns="http://www.w3.org/2000/svg"><g id="svgGroup" stroke-linecap="round" fill-rule="evenodd" font-size="9pt" stroke="#000" stroke-width="0.25mm" fill="#000" style="stroke:#000;stroke-width:0.25mm;fill:#000"><path d="M 57 70.3 L 65.8 69.3 Q 65.9 64.6 65.95 58.8 Q 66 53 66.05 47.65 Q 66.1 42.3 66.1 39 Q 66.1 34 66.15 29.75 Q 66.2 25.5 66.2 21.75 L 66.2 14.7 L 66.2 8.35 Q 66.2 5.3 66.1 2.3 L 56.7 3.1 Q 56.6 2.8 56.6 2.45 A 1.996 1.996 0 0 1 56.61 2.246 Q 56.62 2.143 56.642 2.058 A 0.799 0.799 0 0 1 56.7 1.9 L 67.3 0 L 68.2 0.9 L 67.8 39.4 L 67.8 42.6 L 68 42.7 A 26.424 26.424 0 0 1 68.66 41.347 Q 69.438 39.853 70.629 37.926 A 85.629 85.629 0 0 1 70.8 37.65 A 59.673 59.673 0 0 1 73.841 33.24 A 69.676 69.676 0 0 1 75.2 31.5 A 38.667 38.667 0 0 1 78.321 28.056 A 31.643 31.643 0 0 1 80.4 26.2 A 24.221 24.221 0 0 1 82.228 25.884 A 28.809 28.809 0 0 1 83.4 25.75 A 33.728 33.728 0 0 1 85.295 25.629 A 43.327 43.327 0 0 1 86.9 25.6 Q 89 25.6 90.9 26.25 Q 92.8 26.9 94.45 28.05 A 12.098 12.098 0 0 1 96.02 29.342 A 9.551 9.551 0 0 1 97.1 30.6 Q 97.253 32.591 97.348 35.724 A 248.398 248.398 0 0 1 97.4 37.75 Q 97.5 42.3 97.55 47.8 Q 97.6 53.3 97.75 58.95 Q 97.9 64.6 98 69.3 L 107.8 70 L 107.8 70.55 A 2.157 2.157 0 0 1 107.757 70.988 A 1.865 1.865 0 0 1 107.7 71.2 Q 106.4 71.2 103.5 71.25 Q 100.6 71.3 97.2 71.35 Q 93.8 71.4 90.85 71.45 Q 87.9 71.5 86.4 71.6 A 1.89 1.89 0 0 1 86.3 71.009 A 1.801 1.801 0 0 1 86.3 71 L 86.3 70.3 L 95.9 69.3 L 95.8 53.2 Q 95.8 51.822 95.771 49.711 A 543.725 543.725 0 0 0 95.75 48.35 Q 95.7 45.3 95.6 41.85 Q 95.5 38.4 95.35 35.45 Q 95.226 33.019 95.069 31.504 A 29.541 29.541 0 0 0 95 30.9 A 22.644 22.644 0 0 0 92.722 29.355 Q 91.53 28.655 90.406 28.235 A 10.414 10.414 0 0 0 88.7 27.75 Q 85.8 27.2 81.4 27.7 A 23.642 23.642 0 0 0 80.035 28.855 Q 79.395 29.436 78.699 30.134 A 53.905 53.905 0 0 0 77.25 31.65 A 42.64 42.64 0 0 0 75.025 34.282 Q 73.911 35.707 72.775 37.37 A 71.328 71.328 0 0 0 72.45 37.85 Q 70 41.5 67.7 46.2 L 67.8 69.3 L 76.5 70 L 76.5 70.55 A 2.157 2.157 0 0 1 76.457 70.988 A 1.865 1.865 0 0 1 76.4 71.2 Q 75.405 71.2 73.647 71.229 A 450.916 450.916 0 0 0 72.5 71.25 Q 69.9 71.3 66.9 71.35 Q 63.9 71.4 61.25 71.45 Q 58.6 71.5 57.1 71.6 A 1.89 1.89 0 0 1 57 71.009 A 1.801 1.801 0 0 1 57 71 L 57 70.3 Z M 45.7 9.6 L 45.7 10.1 L 45.7 26.3 L 44.5 26.5 L 44.1 26.1 L 43.6 11.2 A 19.493 19.493 0 0 0 42.353 10.767 Q 40.847 10.297 38.75 9.85 Q 35.7 9.2 32.6 8.75 Q 29.5 8.3 27.4 8.5 A 25.982 25.982 0 0 0 21.639 9.582 A 32.751 32.751 0 0 0 18.3 10.8 A 39.836 39.836 0 0 0 10.887 14.902 A 36.521 36.521 0 0 0 9.8 15.7 Q 7.3 19.2 5.55 23.6 Q 3.8 28 2.9 32.55 Q 2 37.1 1.9 41.2 A 43.422 43.422 0 0 0 1.896 41.82 Q 1.896 48.467 3.95 54.2 Q 6.1 60.2 10.8 64.25 A 22.529 22.529 0 0 0 17.333 68.125 A 30.915 30.915 0 0 0 22.9 69.7 Q 26.636 69.904 29.749 69.669 A 35.216 35.216 0 0 0 32.55 69.35 A 30.536 30.536 0 0 0 37.196 68.261 A 25.19 25.19 0 0 0 40.05 67.15 Q 43.4 65.6 46.6 63.4 L 47.6 64.8 A 26.866 26.866 0 0 1 38.523 69.939 A 25.932 25.932 0 0 1 37.5 70.25 Q 32 71.8 26 71.8 A 24.945 24.945 0 0 1 17.231 70.174 A 28.492 28.492 0 0 1 16.65 69.95 Q 12 68.1 8.25 64.4 A 24.965 24.965 0 0 1 3.974 58.704 A 31.583 31.583 0 0 1 2.25 55.05 Q 0.141 49.753 0.009 42.654 A 51.404 51.404 0 0 1 0 41.7 Q 0 37.2 1 32.3 Q 2 27.4 3.85 22.8 A 40.702 40.702 0 0 1 6.601 17.193 A 34.614 34.614 0 0 1 8.3 14.6 A 20.165 20.165 0 0 1 10.312 13.015 Q 11.855 11.941 13.85 10.9 Q 17.3 9.1 21.15 7.85 A 28.798 28.798 0 0 1 24.265 7.018 Q 25.861 6.691 27.304 6.62 A 16.109 16.109 0 0 1 28.1 6.6 Q 30.6 6.5 33.5 6.9 A 72.689 72.689 0 0 1 37.942 7.659 A 84.087 84.087 0 0 1 39.55 8 Q 42.7 8.7 45.7 9.6 Z M 238.5 9.6 L 238.5 10.1 L 238.5 26.3 L 237.3 26.5 L 236.9 26.1 L 236.4 11.2 A 19.493 19.493 0 0 0 235.153 10.767 Q 233.647 10.297 231.55 9.85 Q 228.5 9.2 225.4 8.75 Q 222.3 8.3 220.2 8.5 A 25.982 25.982 0 0 0 214.439 9.582 A 32.751 32.751 0 0 0 211.1 10.8 A 39.836 39.836 0 0 0 203.687 14.902 A 36.521 36.521 0 0 0 202.6 15.7 Q 200.1 19.2 198.35 23.6 Q 196.6 28 195.7 32.55 Q 194.8 37.1 194.7 41.2 A 43.422 43.422 0 0 0 194.696 41.82 Q 194.696 48.467 196.75 54.2 Q 198.9 60.2 203.6 64.25 A 22.529 22.529 0 0 0 210.133 68.125 A 30.915 30.915 0 0 0 215.7 69.7 Q 219.436 69.904 222.549 69.669 A 35.216 35.216 0 0 0 225.35 69.35 A 30.536 30.536 0 0 0 229.996 68.261 A 25.19 25.19 0 0 0 232.85 67.15 Q 236.2 65.6 239.4 63.4 L 240.4 64.8 A 26.866 26.866 0 0 1 231.323 69.939 A 25.932 25.932 0 0 1 230.3 70.25 Q 224.8 71.8 218.8 71.8 A 24.945 24.945 0 0 1 210.031 70.174 A 28.492 28.492 0 0 1 209.45 69.95 Q 204.8 68.1 201.05 64.4 A 24.965 24.965 0 0 1 196.774 58.704 A 31.583 31.583 0 0 1 195.05 55.05 Q 192.941 49.753 192.809 42.654 A 51.404 51.404 0 0 1 192.8 41.7 Q 192.8 37.2 193.8 32.3 Q 194.8 27.4 196.65 22.8 A 40.702 40.702 0 0 1 199.401 17.193 A 34.614 34.614 0 0 1 201.1 14.6 A 20.165 20.165 0 0 1 203.112 13.015 Q 204.655 11.941 206.65 10.9 Q 210.1 9.1 213.95 7.85 A 28.798 28.798 0 0 1 217.065 7.018 Q 218.661 6.691 220.104 6.62 A 16.109 16.109 0 0 1 220.9 6.6 Q 223.4 6.5 226.3 6.9 A 72.689 72.689 0 0 1 230.742 7.659 A 84.087 84.087 0 0 1 232.35 8 Q 235.5 8.7 238.5 9.6 Z M 402.5 31.1 L 402.9 2.7 L 394.4 3.4 L 394.4 2.75 A 1.996 1.996 0 0 1 394.41 2.546 Q 394.42 2.443 394.442 2.358 A 0.799 0.799 0 0 1 394.5 2.2 L 404.3 0 L 405.1 0.9 Q 405.004 2.44 404.907 5.695 A 431.21 431.21 0 0 0 404.9 5.95 Q 404.8 9.4 404.7 13.8 A 754.581 754.581 0 0 0 404.553 22.56 A 819.322 819.322 0 0 0 404.55 22.85 Q 404.5 27.5 404.45 31.65 Q 404.401 35.751 404.4 38.533 A 311.153 311.153 0 0 0 404.4 38.6 A 316.668 316.668 0 0 0 404.407 40.63 Q 404.413 41.54 404.424 42.557 A 644.342 644.342 0 0 0 404.45 44.7 Q 404.5 48.3 404.55 52.25 Q 404.6 56.2 404.65 59.75 Q 404.7 63.3 404.75 65.9 Q 404.791 68.024 404.865 68.947 A 8.226 8.226 0 0 0 404.9 69.3 L 414.7 67.4 L 414.9 68.5 A 87.614 87.614 0 0 1 411.619 69.605 A 106.159 106.159 0 0 1 409.5 70.25 Q 406.6 71.1 404 71.8 L 403 70.9 L 402.8 56.6 L 402.6 56.5 Q 400.7 59.7 398.6 62.7 A 160.974 160.974 0 0 1 396.829 65.181 Q 396.008 66.309 395.249 67.302 A 93.6 93.6 0 0 1 394.75 67.95 Q 393 70.2 391.9 71.2 Q 390.2 71.4 387.8 71.6 Q 385.52 71.79 383.961 71.8 A 26.573 26.573 0 0 1 383.8 71.8 A 16.398 16.398 0 0 1 379.305 69.66 A 18.901 18.901 0 0 1 378.65 69.2 A 18.316 18.316 0 0 1 375.158 65.808 A 21.533 21.533 0 0 1 374.3 64.65 A 23.828 23.828 0 0 1 371.708 59.719 A 27.455 27.455 0 0 1 371.25 58.45 A 22.498 22.498 0 0 1 370.201 53.277 A 27.303 27.303 0 0 1 370.1 50.9 Q 370.1 47.6 370.8 44.1 Q 371.5 40.6 372.85 37.25 A 32.826 32.826 0 0 1 374.662 33.446 A 26.916 26.916 0 0 1 376 31.3 A 13.94 13.94 0 0 1 377.485 30.104 Q 378.284 29.541 379.243 29.005 A 25.205 25.205 0 0 1 379.9 28.65 Q 382.3 27.4 384.75 26.5 A 22.716 22.716 0 0 1 386.045 26.065 Q 387.306 25.686 388.208 25.616 A 5.054 5.054 0 0 1 388.6 25.6 Q 392.6 25.5 396.15 26.85 A 17.237 17.237 0 0 1 402.236 30.832 A 19.905 19.905 0 0 1 402.5 31.1 Z M 350.4 46.9 L 350.5 31.7 A 6.969 6.969 0 0 0 348.169 29.288 A 9.592 9.592 0 0 0 346.65 28.5 A 14.002 14.002 0 0 0 343.4 27.611 A 19.074 19.074 0 0 0 340.5 27.4 Q 337.2 27.4 333.8 28 Q 330.4 28.6 327.8 29.2 L 326.9 39.5 L 325.4 39.4 L 325.6 28.9 L 326.2 28 Q 329.4 27.1 333.1 26.25 A 32.462 32.462 0 0 1 337.285 25.587 A 43.384 43.384 0 0 1 341.4 25.4 Q 343.5 25.4 345.45 26 A 16.291 16.291 0 0 1 347.731 26.887 A 13.736 13.736 0 0 1 348.95 27.55 A 15.636 15.636 0 0 1 350.151 28.36 Q 350.713 28.782 351.163 29.212 A 8.603 8.603 0 0 1 351.45 29.5 Q 352.073 30.156 352.374 30.769 A 2.832 2.832 0 0 1 352.6 31.4 Q 352.5 33.8 352.4 36.85 Q 352.3 39.9 352.25 43.2 Q 352.2 46.5 352.2 49.8 Q 352.3 53.7 352.35 57.5 A 415.377 415.377 0 0 0 352.411 61.059 Q 352.448 62.747 352.497 64.253 A 248.389 248.389 0 0 0 352.5 64.35 A 117.081 117.081 0 0 0 352.556 65.803 Q 352.637 67.584 352.759 68.886 A 36.414 36.414 0 0 0 352.8 69.3 L 362.3 67.4 L 362.5 68.5 Q 360 69.4 357.2 70.25 Q 354.4 71.1 351.8 71.8 L 350.8 70.9 L 350.6 60.8 L 350.6 60.6 Q 348.3 62.3 345.85 64.2 Q 343.4 66.1 341.25 67.75 Q 339.1 69.4 337.7 70.4 A 50.649 50.649 0 0 1 335.207 71.093 A 39.549 39.549 0 0 1 333.4 71.5 Q 331.55 71.87 330.47 71.812 A 4.589 4.589 0 0 1 330.3 71.8 Q 328.6 71.2 326.85 69.65 Q 325.1 68.1 323.9 65.9 Q 322.7 63.7 322.7 61.1 Q 322.7 59.5 322.95 57.95 Q 323.2 56.4 323.65 54.95 Q 324.1 53.5 324.75 52.2 Q 325.4 50.9 326.3 49.8 A 29.929 29.929 0 0 1 328.594 49.2 Q 329.838 48.923 331.265 48.696 A 57.93 57.93 0 0 1 332.6 48.5 Q 336.3 48 340.05 47.6 A 157.434 157.434 0 0 1 343.159 47.298 Q 345.047 47.134 346.65 47.05 A 272.187 272.187 0 0 1 347.804 46.992 Q 349.253 46.921 350.005 46.905 A 18.463 18.463 0 0 1 350.4 46.9 Z M 452.7 46.9 L 452.8 31.7 A 6.969 6.969 0 0 0 450.469 29.288 A 9.592 9.592 0 0 0 448.95 28.5 A 14.002 14.002 0 0 0 445.7 27.611 A 19.074 19.074 0 0 0 442.8 27.4 Q 439.5 27.4 436.1 28 Q 432.7 28.6 430.1 29.2 L 429.2 39.5 L 427.7 39.4 L 427.9 28.9 L 428.5 28 Q 431.7 27.1 435.4 26.25 A 32.462 32.462 0 0 1 439.585 25.587 A 43.384 43.384 0 0 1 443.7 25.4 Q 445.8 25.4 447.75 26 A 16.291 16.291 0 0 1 450.031 26.887 A 13.736 13.736 0 0 1 451.25 27.55 A 15.636 15.636 0 0 1 452.451 28.36 Q 453.013 28.782 453.463 29.212 A 8.603 8.603 0 0 1 453.75 29.5 Q 454.373 30.156 454.674 30.769 A 2.832 2.832 0 0 1 454.9 31.4 Q 454.8 33.8 454.7 36.85 Q 454.6 39.9 454.55 43.2 Q 454.5 46.5 454.5 49.8 Q 454.6 53.7 454.65 57.5 A 415.377 415.377 0 0 0 454.711 61.059 Q 454.748 62.747 454.797 64.253 A 248.389 248.389 0 0 0 454.8 64.35 A 117.081 117.081 0 0 0 454.856 65.803 Q 454.937 67.584 455.059 68.886 A 36.414 36.414 0 0 0 455.1 69.3 L 464.6 67.4 L 464.8 68.5 Q 462.3 69.4 459.5 70.25 Q 456.7 71.1 454.1 71.8 L 453.1 70.9 L 452.9 60.8 L 452.9 60.6 Q 450.6 62.3 448.15 64.2 Q 445.7 66.1 443.55 67.75 Q 441.4 69.4 440 70.4 A 50.649 50.649 0 0 1 437.507 71.093 A 39.549 39.549 0 0 1 435.7 71.5 Q 433.85 71.87 432.77 71.812 A 4.589 4.589 0 0 1 432.6 71.8 Q 430.9 71.2 429.15 69.65 Q 427.4 68.1 426.2 65.9 Q 425 63.7 425 61.1 Q 425 59.5 425.25 57.95 Q 425.5 56.4 425.95 54.95 Q 426.4 53.5 427.05 52.2 Q 427.7 50.9 428.6 49.8 A 29.929 29.929 0 0 1 430.894 49.2 Q 432.138 48.923 433.565 48.696 A 57.93 57.93 0 0 1 434.9 48.5 Q 438.6 48 442.35 47.6 A 157.434 157.434 0 0 1 445.459 47.298 Q 447.347 47.134 448.95 47.05 A 272.187 272.187 0 0 1 450.104 46.992 Q 451.553 46.921 452.305 46.905 A 18.463 18.463 0 0 1 452.7 46.9 Z M 311.7 27.9 L 311.7 28.1 L 311.7 40.4 L 310.7 40.5 L 310.3 40.1 L 309.6 29.3 A 16.644 16.644 0 0 0 308.531 28.962 Q 307.409 28.645 305.9 28.35 Q 303.6 27.9 301.35 27.6 Q 299.249 27.32 297.803 27.388 A 10.557 10.557 0 0 0 297.6 27.4 Q 294.5 27.6 291.25 29 Q 288 30.4 285.3 32.4 A 26.932 26.932 0 0 0 282.21 38.267 A 32.716 32.716 0 0 0 281.3 41 Q 279.9 45.9 279.9 50.1 A 29.1 29.1 0 0 0 279.897 50.499 Q 279.897 54.106 280.801 57.243 A 20.28 20.28 0 0 0 283.35 62.8 A 15.572 15.572 0 0 0 290.146 68.476 A 22.543 22.543 0 0 0 294.5 69.9 A 50.79 50.79 0 0 0 296.23 69.96 Q 299.042 70.008 301.2 69.7 A 20.063 20.063 0 0 0 304.915 68.816 A 17.545 17.545 0 0 0 306.35 68.25 Q 308.695 67.202 311.29 65.407 A 35.048 35.048 0 0 0 311.3 65.4 L 312.2 66.7 A 20.901 20.901 0 0 1 309.571 68.598 A 17.922 17.922 0 0 1 308.3 69.3 Q 306.3 70.3 304.2 70.9 Q 302.4 71.4 300.5 71.6 Q 298.6 71.8 296.6 71.8 A 18.852 18.852 0 0 1 288.649 69.812 A 22.213 22.213 0 0 1 287.85 69.4 Q 283.6 67.1 280.8 62.4 Q 278.306 58.214 278.033 52.045 A 34.985 34.985 0 0 1 278 50.5 A 31.52 31.52 0 0 1 278.464 45.244 A 42.176 42.176 0 0 1 279.55 40.55 A 33.416 33.416 0 0 1 281.619 35.132 A 26.713 26.713 0 0 1 283.9 31.3 A 13.469 13.469 0 0 1 285.394 30.104 Q 286.194 29.547 287.159 29.016 A 25.156 25.156 0 0 1 287.85 28.65 A 34.848 34.848 0 0 1 292.405 26.73 A 38.732 38.732 0 0 1 293.1 26.5 A 21.522 21.522 0 0 1 295.276 25.917 Q 296.367 25.689 297.349 25.625 A 11.528 11.528 0 0 1 298.1 25.6 A 19.94 19.94 0 0 1 298.838 25.587 Q 301.293 25.587 304.5 26.15 Q 308.2 26.8 311.7 27.9 Z M 138 70.3 L 146.8 69.3 Q 146.9 64.6 146.95 58.8 Q 147 53 147.05 47.65 Q 147.1 42.3 147.1 39 A 2392.16 2392.16 0 0 1 147.11 32.042 Q 147.119 28.877 147.137 26.076 A 1304.116 1304.116 0 0 1 147.15 24.25 Q 147.2 17.9 147.25 12.6 Q 147.3 7.3 147.1 2.3 L 137.7 3.1 A 2.782 2.782 0 0 1 137.628 2.783 Q 137.565 2.396 137.643 2.08 A 1.337 1.337 0 0 1 137.7 1.9 L 148.3 0 L 149.2 0.9 Q 149.1 3.9 149.05 7 Q 149 10.1 148.95 13.55 Q 148.9 17 148.9 20.9 Q 148.9 24.8 148.85 29.35 Q 148.8 33.9 148.8 39.4 Q 148.8 42 148.75 45.2 Q 148.7 48.4 148.7 52.2 Q 148.7 56 148.75 60.25 Q 148.8 64.5 148.8 69.3 L 157.5 70 L 157.5 70.55 A 2.157 2.157 0 0 1 157.457 70.988 A 1.865 1.865 0 0 1 157.4 71.2 Q 156.405 71.2 154.647 71.229 A 450.916 450.916 0 0 0 153.5 71.25 Q 150.9 71.3 147.9 71.35 Q 144.9 71.4 142.25 71.45 Q 139.6 71.5 138.1 71.6 A 1.89 1.89 0 0 1 138 71.009 A 1.801 1.801 0 0 1 138 71 L 138 70.3 Z M 164.3 70.3 L 173.1 69.3 Q 173.2 64.6 173.25 58.8 Q 173.3 53 173.35 47.65 Q 173.4 42.3 173.4 39 A 2392.16 2392.16 0 0 1 173.41 32.042 Q 173.419 28.877 173.437 26.076 A 1304.116 1304.116 0 0 1 173.45 24.25 Q 173.5 17.9 173.55 12.6 Q 173.6 7.3 173.4 2.3 L 164 3.1 A 2.782 2.782 0 0 1 163.928 2.783 Q 163.865 2.396 163.943 2.08 A 1.337 1.337 0 0 1 164 1.9 L 174.6 0 L 175.5 0.9 Q 175.4 3.9 175.35 7 Q 175.3 10.1 175.25 13.55 Q 175.2 17 175.2 20.9 Q 175.2 24.8 175.15 29.35 Q 175.1 33.9 175.1 39.4 Q 175.1 42 175.05 45.2 Q 175 48.4 175 52.2 Q 175 56 175.05 60.25 Q 175.1 64.5 175.1 69.3 L 183.8 70 L 183.8 70.55 A 2.157 2.157 0 0 1 183.757 70.988 A 1.865 1.865 0 0 1 183.7 71.2 Q 182.705 71.2 180.947 71.229 A 450.916 450.916 0 0 0 179.8 71.25 Q 177.2 71.3 174.2 71.35 Q 171.2 71.4 168.55 71.45 Q 165.9 71.5 164.4 71.6 A 1.89 1.89 0 0 1 164.3 71.009 A 1.801 1.801 0 0 1 164.3 71 L 164.3 70.3 Z M 112.9 70.3 L 121.7 69.3 Q 121.7 67.845 121.729 65.541 A 676.674 676.674 0 0 1 121.75 64.05 Q 121.8 60.7 121.8 57.3 L 121.8 51.9 L 121.8 44.7 L 121.8 36.2 Q 121.8 31.8 121.6 27.9 L 111.8 28.8 L 111.8 28.15 A 1.996 1.996 0 0 1 111.81 27.946 Q 111.82 27.843 111.842 27.758 A 0.799 0.799 0 0 1 111.9 27.6 L 123 25.6 L 123.7 26.5 L 123.6 30.3 Q 123.5 33.7 123.5 38.35 L 123.5 46.4 Q 123.5 50.2 123.55 54.55 Q 123.6 58.9 123.65 62.8 Q 123.699 66.606 123.7 69.174 A 275.428 275.428 0 0 1 123.7 69.3 L 132.4 70 L 132.4 70.55 A 2.157 2.157 0 0 1 132.357 70.988 A 1.865 1.865 0 0 1 132.3 71.2 Q 131.305 71.2 129.547 71.229 A 450.916 450.916 0 0 0 128.4 71.25 Q 125.8 71.3 122.8 71.35 Q 119.8 71.4 117.15 71.45 Q 114.5 71.5 113 71.6 A 1.89 1.89 0 0 1 112.9 71.009 A 1.801 1.801 0 0 1 112.9 71 L 112.9 70.3 Z M 250.1 70.3 L 258.9 69.3 Q 258.9 67.845 258.929 65.541 A 676.674 676.674 0 0 1 258.95 64.05 Q 259 60.7 259 57.3 L 259 51.9 L 259 44.7 L 259 36.2 Q 259 31.8 258.8 27.9 L 249 28.8 L 249 28.15 A 1.996 1.996 0 0 1 249.01 27.946 Q 249.02 27.843 249.042 27.758 A 0.799 0.799 0 0 1 249.1 27.6 L 260.2 25.6 L 260.9 26.5 L 260.8 30.3 Q 260.7 33.7 260.7 38.35 L 260.7 46.4 Q 260.7 50.2 260.75 54.55 Q 260.8 58.9 260.85 62.8 Q 260.899 66.606 260.9 69.174 A 275.428 275.428 0 0 1 260.9 69.3 L 269.6 70 L 269.6 70.55 A 2.157 2.157 0 0 1 269.557 70.988 A 1.865 1.865 0 0 1 269.5 71.2 Q 268.505 71.2 266.747 71.229 A 450.916 450.916 0 0 0 265.6 71.25 Q 263 71.3 260 71.35 Q 257 71.4 254.35 71.45 Q 251.7 71.5 250.2 71.6 A 1.89 1.89 0 0 1 250.1 71.009 A 1.801 1.801 0 0 1 250.1 71 L 250.1 70.3 Z M 402.7 53.3 L 402.5 34.4 A 10.369 10.369 0 0 0 400.515 31.863 A 12.999 12.999 0 0 0 399.3 30.85 Q 397.2 29.3 394.55 28.4 Q 391.9 27.5 388.8 27.4 A 12.82 12.82 0 0 0 386.803 27.739 Q 385.796 27.988 384.678 28.401 A 27.628 27.628 0 0 0 383.2 29 Q 380 30.4 377.3 32.4 A 24.968 24.968 0 0 0 374.366 38.03 A 30.973 30.973 0 0 0 373.4 41.1 A 40.761 40.761 0 0 0 372.283 47.194 A 34.331 34.331 0 0 0 372.1 50.7 Q 372.1 58 375.3 63 Q 378.5 68 384.1 70 Q 385.4 70 387.45 69.85 A 2887.544 2887.544 0 0 1 388.896 69.745 Q 389.461 69.704 389.962 69.667 A 1363.203 1363.203 0 0 1 390.9 69.6 A 10.666 10.666 0 0 0 391.455 69.056 Q 392.433 68.034 394.1 65.95 Q 396.3 63.2 398.7 59.7 Q 400.763 56.692 402.234 54.127 A 56.597 56.597 0 0 0 402.7 53.3 Z M 350.5 58.5 L 350.4 48.7 Q 347.1 48.7 343 49.05 Q 338.9 49.4 334.8 49.95 A 80.216 80.216 0 0 0 331.154 50.521 Q 329.2 50.875 327.5 51.3 A 3.609 3.609 0 0 0 326.968 51.894 Q 326.477 52.567 326.05 53.65 A 17.403 17.403 0 0 0 325.355 55.849 A 21.379 21.379 0 0 0 325.05 57.3 Q 324.731 59.124 324.703 60.616 A 15.118 15.118 0 0 0 324.7 60.9 Q 324.7 63 325.6 64.85 Q 326.5 66.7 327.2 67.4 A 29.344 29.344 0 0 0 328.105 68.169 Q 328.94 68.847 329.578 69.238 A 6.422 6.422 0 0 0 329.95 69.45 A 3.513 3.513 0 0 0 331.109 69.812 Q 331.652 69.887 332.278 69.826 A 6.432 6.432 0 0 0 332.5 69.8 A 19.414 19.414 0 0 0 333.331 69.669 Q 334.7 69.425 336.8 68.9 Q 337.873 68.184 339.427 67.029 A 119.466 119.466 0 0 0 339.8 66.75 Q 341.6 65.4 343.55 63.9 Q 345.5 62.4 347.35 60.95 A 622.362 622.362 0 0 1 348.66 59.926 Q 349.688 59.125 350.5 58.5 Z M 452.8 58.5 L 452.7 48.7 Q 449.4 48.7 445.3 49.05 Q 441.2 49.4 437.1 49.95 A 80.216 80.216 0 0 0 433.454 50.521 Q 431.5 50.875 429.8 51.3 A 3.609 3.609 0 0 0 429.268 51.894 Q 428.777 52.567 428.35 53.65 A 17.403 17.403 0 0 0 427.655 55.849 A 21.379 21.379 0 0 0 427.35 57.3 Q 427.031 59.124 427.003 60.616 A 15.118 15.118 0 0 0 427 60.9 Q 427 63 427.9 64.85 Q 428.8 66.7 429.5 67.4 A 29.344 29.344 0 0 0 430.405 68.169 Q 431.24 68.847 431.878 69.238 A 6.422 6.422 0 0 0 432.25 69.45 A 3.513 3.513 0 0 0 433.409 69.812 Q 433.952 69.887 434.578 69.826 A 6.432 6.432 0 0 0 434.8 69.8 A 19.414 19.414 0 0 0 435.631 69.669 Q 437 69.425 439.1 68.9 Q 440.173 68.184 441.727 67.029 A 119.466 119.466 0 0 0 442.1 66.75 Q 443.9 65.4 445.85 63.9 Q 447.8 62.4 449.65 60.95 A 622.362 622.362 0 0 1 450.96 59.926 Q 451.988 59.125 452.8 58.5 Z M 121.3 15.7 Q 121.2 14.3 121.15 12.65 A 36.314 36.314 0 0 1 121.133 11.55 A 36.358 36.358 0 0 1 121.2 9.35 A 45.478 45.478 0 0 1 121.406 6.959 A 39.817 39.817 0 0 1 121.5 6.2 A 2.007 2.007 0 0 1 121.813 6.074 A 1.788 1.788 0 0 1 121.9 6.05 Q 122.1 6 122.35 6 L 122.8 6 L 122.95 6 L 123.1 6 L 123.2 6 A 43.023 43.023 0 0 1 123.365 7.311 Q 123.441 7.985 123.507 8.739 A 75.951 75.951 0 0 1 123.55 9.25 A 50.65 50.65 0 0 1 123.653 10.792 Q 123.688 11.499 123.697 12.134 A 29.695 29.695 0 0 1 123.7 12.55 A 34.012 34.012 0 0 1 123.696 13.057 Q 123.681 14.075 123.6 14.4 Q 123.6 14.48 123.503 14.755 A 8.172 8.172 0 0 1 123.45 14.9 Q 123.3 15.3 123.2 15.65 A 2.123 2.123 0 0 1 123.164 15.764 Q 123.082 16 123 16 A 2.661 2.661 0 0 1 122.882 15.997 Q 122.675 15.988 122.3 15.95 Q 121.8 15.9 121.3 15.7 Z M 258.5 15.7 Q 258.4 14.3 258.35 12.65 A 36.314 36.314 0 0 1 258.333 11.55 A 36.358 36.358 0 0 1 258.4 9.35 A 45.478 45.478 0 0 1 258.606 6.959 A 39.817 39.817 0 0 1 258.7 6.2 A 2.007 2.007 0 0 1 259.013 6.074 A 1.788 1.788 0 0 1 259.1 6.05 Q 259.3 6 259.55 6 L 260 6 L 260.15 6 L 260.3 6 L 260.4 6 A 43.023 43.023 0 0 1 260.565 7.311 Q 260.641 7.985 260.707 8.739 A 75.951 75.951 0 0 1 260.75 9.25 A 50.65 50.65 0 0 1 260.853 10.792 Q 260.888 11.499 260.897 12.134 A 29.695 29.695 0 0 1 260.9 12.55 A 34.012 34.012 0 0 1 260.896 13.057 Q 260.881 14.075 260.8 14.4 Q 260.8 14.48 260.703 14.755 A 8.172 8.172 0 0 1 260.65 14.9 Q 260.5 15.3 260.4 15.65 A 2.123 2.123 0 0 1 260.364 15.764 Q 260.282 16 260.2 16 A 2.661 2.661 0 0 1 260.082 15.997 Q 259.875 15.988 259.5 15.95 Q 259 15.9 258.5 15.7 Z" vector-effect="non-scaling-stroke" /></g></svg>
